PathFileType	4	(X/Y/Z)	/Users/niels/Desktop/University/Third Semester/Perception and Action/Exam/Gymnastics Motion Tracking/Code for Gym Tracking/Analyzed Data/Webcam_Backflip/temp_id5_4_baseline_Sports2D/temp_id5_4_baseline_Sports2D_px_person00.trc
DataRate	CameraRate	NumFrames	NumMarkers	Units	OrigDataRate	OrigDataStartFrame	OrigNumFrames
29.810126582278482	29.810126582278482	11	22	m	29.810126582278482	138	158
Frame#	Time	Hip			RHip			RKnee			RAnkle			RBigToe			RSmallToe			RHeel			LHip			LKnee			LAnkle			LBigToe			LSmallToe			LHeel			Neck			Head			Nose			RShoulder			RElbow			RWrist			LShoulder			LElbow			LWrist		
		X1	Y1	Z1	X2	Y2	Z2	X3	Y3	Z3	X4	Y4	Z4	X5	Y5	Z5	X6	Y6	Z6	X7	Y7	Z7	X8	Y8	Z8	X9	Y9	Z9	X10	Y10	Z10	X11	Y11	Z11	X12	Y12	Z12	X13	Y13	Z13	X14	Y14	Z14	X15	Y15	Z15	X16	Y16	Z16	X17	Y17	Z17	X18	Y18	Z18	X19	Y19	Z19	X20	Y20	Z20	X21	Y21	Z21	X22	Y22	Z22
138	4.629299363057325	0.842916703961706	-0.5655952642707225	0.0	0.8433843431403503	-0.5642708629268173	0.0	0.8928294882703384	-0.6588081639695811	0.0	0.9057502744255762	-0.7705568493840573	0.0	0.9522033900925878	-0.7787052132558485	0.0	0.9448928553786772	-0.7842321683303013	0.0	0.8985570741428576	-0.7871765088938143	0.0	0.8410385790159596	-0.5650184428302156	0.0	0.8387555671745586	-0.6705661181308875	0.0	0.8050607881559503	-0.771285951059521	0.0	0.845930741148067	-0.7889429276791804	0.0	0.8397239901476998	-0.7855827666792404	0.0	0.7951614489394273	-0.7857988362798055	0.0	0.8692798244756395	-0.42232807679155726	0.0	0.9139515988660214	-0.3696929194455442	0.0	0.910227007341569	-0.4127919610145072	0.0	0.8474994200340167	-0.4319620749462136	0.0	0.8210585353662969	-0.4941923516493536	0.0	0.8173229199568818	-0.5579124237409934	0.0	0.8748107767292828	-0.44291369437398526	0.0	0.8619371017613571	-0.5137973299755964	0.0	0.8904599561482465	-0.5589665434304435	0.0
139	4.662845010615711	0.8502965594541778	-0.5695303971262994	0.0	0.8527272994078562	-0.5675770817241129	0.0	0.8993253313212464	-0.6637783481251883	0.0	0.919294677060405	-0.7753497318578086	0.0	0.9656683846525919	-0.7810865118156328	0.0	0.958580559153526	-0.7874461119371435	0.0	0.9129350488194612	-0.791919978959597	0.0	0.8468883514543344	-0.5682585291316122	0.0	0.8434300078697826	-0.6734631657486624	0.0	0.8057961841921454	-0.773143130276819	0.0	0.8453117142704457	-0.7914324023885427	0.0	0.8387125565052754	-0.7880675765445171	0.0	0.7956081820028468	-0.7876489387076043	0.0	0.875409472322945	-0.4253223501374952	0.0	0.9204980791516131	-0.37332507998363285	0.0	0.9164620025621855	-0.4164620128586689	0.0	0.8560836556084493	-0.4362964347535865	0.0	0.8294596935191656	-0.4992612520177915	0.0	0.8274711502276376	-0.5640577614198328	0.0	0.8785902822271355	-0.4447365649891503	0.0	0.8676472305668753	-0.5161371465593382	0.0	0.8968188836843507	-0.5606766048240591	0.0
140	4.6963906581740975	0.8582058888223988	-0.5747086083410797	0.0	0.8624403302898612	-0.5721123106972109	0.0	0.9053909891521026	-0.6704359649155718	0.0	0.9272440882091838	-0.7816507506940178	0.0	0.972982835261842	-0.7859479297312928	0.0	0.9656630577002651	-0.793044592887294	0.0	0.9211011447071822	-0.7977542805199169	0.0	0.8530899865389954	-0.5726686627270036	0.0	0.8483929820115534	-0.677595805964362	0.0	0.8064502228622769	-0.7758174518133875	0.0	0.8447269410612778	-0.7948230369377951	0.0	0.8379539919506557	-0.7913096563718325	0.0	0.7960128116140722	-0.7902597402230064	0.0	0.8812730687323019	-0.42949154302056136	0.0	0.9263821920386103	-0.3780156039229943	0.0	0.9224251778983926	-0.42093314229358136	0.0	0.8648239499390282	-0.4422338806053608	0.0	0.8386764417170736	-0.5064218207640945	0.0	0.838874005996552	-0.5725123579006292	0.0	0.8817155091678819	-0.4477947565465478	0.0	0.8733030040731986	-0.5195979347876359	0.0	0.9026240156574427	-0.5632298192898387	0.0
141	4.729936305732484	0.8662185044125952	-0.5806156259721863	0.0	0.8718662150408353	-0.5774303001796394	0.0	0.9109993833836352	-0.677962261023044	0.0	0.930968184296985	-0.7890222551974405	0.0	0.9755014749813009	-0.7924057829026336	0.0	0.9676305279926077	-0.800137658871318	0.0	0.9246497965870512	-0.8043166857917933	0.0	0.8594166620603585	-0.5778223111019706	0.0	0.8536038959839315	-0.6825363535666968	0.0	0.8071054238097172	-0.7788394217585207	0.0	0.8442900412937246	-0.7987378965104827	0.0	0.8376201287843054	-0.7948671084644743	0.0	0.7964037803250806	-0.7931744889857719	0.0	0.8869863793042708	-0.43443435763951016	0.0	0.9317601375743517	-0.38337229478378276	0.0	0.9282602861708645	-0.42592175097371476	0.0	0.8734473492274016	-0.44917910968934704	0.0	0.8486343709724881	-0.5150984146705387	0.0	0.8514305603802753	-0.5823992687381644	0.0	0.8846211848098021	-0.45177553670364057	0.0	0.8789330413532948	-0.5238889426758085	0.0	0.9077834391891629	-0.5666991308962444	0.0
142	4.763481953290871	0.8738768830510303	-0.5866868237916584	0.0	0.880397043949829	-0.5829909727638931	0.0	0.9161145112586139	-0.6854945366444993	0.0	0.9320965904563688	-0.7966151443037373	0.0	0.9747649182680169	-0.7991879007475178	0.0	0.9662013703857383	-0.8074572534084409	0.0	0.9254182744809117	-0.8108590752336382	0.0	0.8656582845655719	-0.5832223649185543	0.0	0.8591933697013456	-0.6877005313620577	0.0	0.8079155647173079	-0.781554396178698	0.0	0.8440633387270231	-0.8026632592050101	0.0	0.837749104092313	-0.7982200596883667	0.0	0.7968319099593804	-0.7957133646318809	0.0	0.8926279159688377	-0.4396713349563539	0.0	0.9368979646699063	-0.38893662420055986	0.0	0.9340468678798922	-0.43105002453182895	0.0	0.8816367374012145	-0.4563904321701882	0.0	0.8591176754833957	-0.524490827142751	0.0	0.8648648712027885	-0.5925046623679519	0.0	0.8876903016785498	-0.45622573099141855	0.0	0.8845400774980073	-0.5286874979980695	0.0	0.9122863851445809	-0.571280824796282	0.0
143	4.7970276008492565	0.8808697334206151	-0.5923588457185226	0.0	0.8877040041930737	-0.5882523386296284	0.0	0.9207330232382478	-0.692290742449621	0.0	0.9319657781182394	-0.8035163377044932	0.0	0.9722135497081674	-0.8051716280255421	0.0	0.9630048119217439	-0.8138476043207806	0.0	0.9248345184805145	-0.8165990986172619	0.0	0.8717021655258708	-0.5883593332197107	0.0	0.8653627289517736	-0.6924851157570993	0.0	0.8090955392452756	-0.78324073417903	0.0	0.8439924065601344	-0.806019441595703	0.0	0.8382177554240515	-0.8008547060600648	0.0	0.7974075634592118	-0.7970883497452408	0.0	0.8982337681801957	-0.4446750189189141	0.0	0.9420540945034639	-0.39421751998656857	0.0	0.9397820383808629	-0.4358758496177851	0.0	0.8891643422303225	-0.46310621650923023	0.0	0.8697104749185106	-0.53360555456465	0.0	0.8787851959836697	-0.6015398973022068	0.0	0.8911938724704662	-0.4606443047690659	0.0	0.8899677263870305	-0.5336378997693559	0.0	0.9160818846390542	-0.5770708219920522	0.0
144	4.830573248407643	0.887134697048271	-0.5970614397488039	0.0	0.8938227326019103	-0.5927127107163438	0.0	0.9248698679457505	-0.6978014841281488	0.0	0.9314175451188469	-0.8090135730525166	0.0	0.9691971271108334	-0.8097781840586757	0.0	0.9595355397264228	-0.818620480816263	0.0	0.9237424922572702	-0.8209916980632659	0.0	0.8775656983515547	-0.5927318316735943	0.0	0.872298057470319	-0.6963557592591719	0.0	0.8109168924088129	-0.7832351176848836	0.0	0.8439448708303551	-0.8082414982095618	0.0	0.8387897761128543	-0.802329641244628	0.0	0.7983529914986343	-0.7965522504223732	0.0	0.9038241363259008	-0.4489219805749115	0.0	0.9473820214124663	-0.3987157409728595	0.0	0.9454512097108901	-0.43996187270140813	0.0	0.8959694810480185	-0.46869682156653636	0.0	0.8798728306336704	-0.5414250640103452	0.0	0.8927266603992307	-0.6084741099765051	0.0	0.89518864875444	-0.4645407769228798	0.0	0.8948129060777054	-0.5382696792898394	0.0	0.9190193523716483	-0.5837632715530178	0.0
145	4.86411889596603	0.8927721392434222	-0.600265992391606	0.0	0.8990025426676631	-0.5959317657300606	0.0	0.9285234702542524	-0.7016471201764081	0.0	0.9308886574167022	-0.8126954539523235	0.0	0.9669343789554187	-0.8129745846757512	0.0	0.9570377938029927	-0.8216354782992215	0.0	0.9225846965203719	-0.8237688671780055	0.0	0.8833178044439121	-0.5958777489425968	0.0	0.8801503265807475	-0.6988576142173099	0.0	0.8136917350475148	-0.7810749794988141	0.0	0.8439340788160756	-0.8088398342443298	0.0	0.839360316493245	-0.8022763155723205	0.0	0.8000280164139933	-0.7935544574476876	0.0	0.90941010844692	-0.4519568523234249	0.0	0.9529155714901705	-0.40199075726559	0.0	0.9510808951229253	-0.44295272582009526	0.0	0.9021423053775272	-0.472717822438152	0.0	0.8891273185907103	-0.5471545654542312	0.0	0.9061446707206507	-0.6127510825712953	0.0	0.8994767055642485	-0.46745491789819626	0.0	0.8985973820036764	-0.5419946803988688	0.0	0.921033526766528	-0.5904905802646097	0.0
146	4.897664543524416	0.8978766612840897	-0.6016072107218271	0.0	0.9034605451137052	-0.5975615794863253	0.0	0.9316710140746152	-0.7035876642554667	0.0	0.930594587054914	-0.8144418637663915	0.0	0.9661905743970557	-0.8149713896930474	0.0	0.9561881866809941	-0.8231456486822416	0.0	0.921642423842922	-0.8248729355849906	0.0	0.8889711493518074	-0.5974227011047465	0.0	0.8889864763904548	-0.6996336443198965	0.0	0.8177547976622068	-0.776662770272993	0.0	0.8444065343559921	-0.8075016900390187	0.0	0.8402928610678572	-0.8004383477773572	0.0	0.8028986438911632	-0.7879201810081378	0.0	0.9149686102301758	-0.4534594012806209	0.0	0.9586100517708548	-0.4037632076388768	0.0	0.9566984815232784	-0.4446245686986287	0.0	0.907852818586265	-0.4748708845530055	0.0	0.8971997386795323	-0.5503783973714568	0.0	0.9184504099762424	-0.6143382738087363	0.0	0.9037827426322599	-0.469008713178851	0.0	0.9011166513857793	-0.5442538986254606	0.0	0.9223868277319023	-0.59597249150828	0.0
147	4.931210191082802	0.9024701112829352	-0.6009494240720807	0.0	0.9072708024826922	-0.5973777772216878	0.0	0.9343183156643935	-0.703501908327337	0.0	0.9306293907322928	-0.8143400704045508	0.0	0.9670335918291698	-0.8159563900796198	0.0	0.9569357705261425	-0.823538463098931	0.0	0.9211196704005149	-0.8244179379577534	0.0	0.894471950081396	-0.5971264141202431	0.0	0.8987163999409826	-0.6984640864055244	0.0	0.8234589617390692	-0.7703789056649845	0.0	0.8463387371709644	-0.804238861049095	0.0	0.842521718280847	-0.7968292253212858	0.0	0.8074814358056446	-0.7800551007468742	0.0	0.920446428424953	-0.45329410557022887	0.0	0.9644022120965653	-0.4039532441110829	0.0	0.9622876325551062	-0.4448735398708463	0.0	0.9132676053587265	-0.4749960375509142	0.0	0.9040520346354955	-0.5510439750828243	0.0	0.9291135449633178	-0.6135613204532643	0.0	0.9079966711400496	-0.4689762220270797	0.0	0.9026355945289808	-0.5446827837011954	0.0	0.9236131733793459	-0.5990127293222421	0.0
148	4.964755838641189	0.9065204182147638	-0.5983697432966729	0.0	0.9104190540045858	-0.5953270526741794	0.0	0.9365315523672904	-0.7013838084973537	0.0	0.9309596908672784	-0.8125773100727398	0.0	0.9689499525288738	-0.8160151116701241	0.0	0.9586754554181935	-0.8230859659477009	0.0	0.9210923050119515	-0.8226291323553219	0.0	0.8997502799035553	-0.5949466114906696	0.0	0.909080355463209	-0.6953130678959021	0.0	0.8311463018759578	-0.7630942398302277	0.0	0.8509846966418877	-0.7994907526164146	0.0	0.8472480067260665	-0.7919024611583836	0.0	0.8142806853421537	-0.7710947667958243	0.0	0.9258039008347774	-0.45151794973200865	0.0	0.9702705995090967	-0.4026461608964975	0.0	0.9677998083201338	-0.4436829606986051	0.0	0.9184920177899845	-0.47312263357283546	0.0	0.9098325823620907	-0.5493295311847493	0.0	0.9377619310654433	-0.6108567776407097	0.0	0.9121894042969286	-0.4673071814231016	0.0	0.9036928101956588	-0.543166682918595	0.0	0.9251523508453632	-0.5990383569863382	0.0
